/* XPM */
static char * East_xpm[] = {
"64 64 191 2",
"  	c #FFFFFF",
". 	c #FCFCFC",
"+ 	c #F2F2F2",
"@ 	c #F0F0F0",
"# 	c #F5F5F5",
"$ 	c #FEFEFE",
"% 	c #E8E8E8",
"& 	c #838383",
"* 	c #595959",
"= 	c #5A5A5A",
"- 	c #535353",
"; 	c #A1A1A1",
"> 	c #F8F8F8",
", 	c #FBFBFB",
"' 	c #DFDFDF",
") 	c #000000",
"! 	c #565656",
"~ 	c #D7D7D7",
"{ 	c #FDFDFD",
"] 	c #E1E1E1",
"^ 	c #040404",
"/ 	c #020202",
"( 	c #B5B5B5",
"_ 	c #E2E2E2",
": 	c #575757",
"< 	c #010101",
"[ 	c #030303",
"} 	c #919191",
"| 	c #EEEEEE",
"1 	c #E0E0E0",
"2 	c #454545",
"3 	c #C5C5C5",
"4 	c #F4F4F4",
"5 	c #545454",
"6 	c #616161",
"7 	c #F9F9F9",
"8 	c #DDDDDD",
"9 	c #5E5E5E",
"0 	c #060606",
"a 	c #050505",
"b 	c #E3E3E3",
"c 	c #C9C9C9",
"d 	c #CACACA",
"e 	c #C4C4C4",
"f 	c #ABABAB",
"g 	c #626262",
"h 	c #202020",
"i 	c #0C0C0C",
"j 	c #0D0D0D",
"k 	c #0A0A0A",
"l 	c #080808",
"m 	c #070707",
"n 	c #A3A3A3",
"o 	c #FAFAFA",
"p 	c #F7F7F7",
"q 	c #A0A0A0",
"r 	c #222222",
"s 	c #2D2D2D",
"t 	c #767676",
"u 	c #828282",
"v 	c #818181",
"w 	c #808080",
"x 	c #7E7E7E",
"y 	c #7C7C7C",
"z 	c #7A7A7A",
"A 	c #727272",
"B 	c #6B6B6B",
"C 	c #4C4C4C",
"D 	c #181818",
"E 	c #484848",
"F 	c #F6F6F6",
"G 	c #E7E7E7",
"H 	c #5D5D5D",
"I 	c #E9E9E9",
"J 	c #D0D0D0",
"K 	c #A8A8A8",
"L 	c #8A8A8A",
"M 	c #4D4D4D",
"N 	c #282828",
"O 	c #F3F3F3",
"P 	c #666666",
"Q 	c #D3D3D3",
"R 	c #ADADAD",
"S 	c #101010",
"T 	c #717171",
"U 	c #DADADA",
"V 	c #585858",
"W 	c #5B5B5B",
"X 	c #0B0B0B",
"Y 	c #303030",
"Z 	c #B4B4B4",
"` 	c #676767",
" .	c #5C5C5C",
"..	c #EFEFEF",
"+.	c #EDEDED",
"@.	c #6F6F6F",
"#.	c #8C8C8C",
"$.	c #DBDBDB",
"%.	c #D9D9D9",
"&.	c #DCDCDC",
"*.	c #656565",
"=.	c #CECECE",
"-.	c #9E9E9E",
";.	c #4E4E4E",
">.	c #4A4A4A",
",.	c #4B4B4B",
"'.	c #6A6A6A",
").	c #B2B2B2",
"!.	c #949494",
"~.	c #939393",
"{.	c #797979",
"].	c #969696",
"^.	c #D4D4D4",
"/.	c #515151",
"(.	c #121212",
"_.	c #999999",
":.	c #1D1D1D",
"<.	c #3C3C3C",
"[.	c #8F8F8F",
"}.	c #D6D6D6",
"|.	c #F1F1F1",
"1.	c #D2D2D2",
"2.	c #424242",
"3.	c #6E6E6E",
"4.	c #BFBFBF",
"5.	c #E5E5E5",
"6.	c #787878",
"7.	c #C8C8C8",
"8.	c #BEBEBE",
"9.	c #3E3E3E",
"0.	c #272727",
"a.	c #686868",
"b.	c #747474",
"c.	c #242424",
"d.	c #191919",
"e.	c #313131",
"f.	c #737373",
"g.	c #848484",
"h.	c #404040",
"i.	c #1B1B1B",
"j.	c #414141",
"k.	c #C2C2C2",
"l.	c #E4E4E4",
"m.	c #B6B6B6",
"n.	c #CFCFCF",
"o.	c #AEAEAE",
"p.	c #212121",
"q.	c #696969",
"r.	c #979797",
"s.	c #959595",
"t.	c #393939",
"u.	c #8B8B8B",
"v.	c #D1D1D1",
"w.	c #707070",
"x.	c #929292",
"y.	c #E6E6E6",
"z.	c #525252",
"A.	c #292929",
"B.	c #C3C3C3",
"C.	c #9D9D9D",
"D.	c #3A3A3A",
"E.	c #3B3B3B",
"F.	c #383838",
"G.	c #3F3F3F",
"H.	c #636363",
"I.	c #3D3D3D",
"J.	c #DEDEDE",
"K.	c #909090",
"L.	c #0E0E0E",
"M.	c #B1B1B1",
"N.	c #868686",
"O.	c #090909",
"P.	c #494949",
"Q.	c #D8D8D8",
"R.	c #D5D5D5",
"S.	c #B7B7B7",
"T.	c #131313",
"U.	c #CBCBCB",
"V.	c #232323",
"W.	c #A9A9A9",
"X.	c #888888",
"Y.	c #6D6D6D",
"Z.	c #5F5F5F",
"`.	c #4F4F4F",
" +	c #1F1F1F",
".+	c #898989",
"++	c #CCCCCC",
"@+	c #2C2C2C",
"#+	c #ECECEC",
"$+	c #A6A6A6",
"%+	c #A5A5A5",
"                                                                                                                                ",
"                                                                                                                                ",
"  . + @ @ @ @ @ @ @ @ @ @ @ @ @ @ @ @ @ @ @ @ @ @ @ @ @ @ @ @ @ @ @ @ @ @ @ @ @ @ @ @ @ @ @ @ @ @ @ @ #     $                   ",
"$ % & * = = = = = = = = = = = = = = = = = = = = = = = = = = = = = = = = = = = = = = = = = = = = = * - ; > $ ,                   ",
"$ ' * ) ) ) ) ) ) ) ) ) ) ) ) ) ) ) ) ) ) ) ) ) ) ) ) ) ) ) ) ) ) ) ) ) ) ) ) ) ) ) ) ) ) ) ) ) ) ) ) ! ~ , { .                 ",
"  ] ! ) ) ) ) ) ) ) ) ) ) ) ) ) ) ) ) ) ) ) ) ) ) ) ) ) ) ) ) ) ) ) ) ) ) ) ) ) ) ) ) ) ) ) ) ) ) ^ / ) ( ,   {                 ",
"  _ : ) ) ) ) ) ) ) ) ) ) ) ) ) ) ) ) ) ) ) ) ) ) ) ) ) ) ) ) ) ) ) ) ) ) ) ) ) ) ) ) ) ) ) ) ) ) < [ ) } |                     ",
"  1 : ) ) ) ) ) ) ) ) ) ) ) ) ) ) ) ) ) ) ) ) ) ) ) ) ) ) ) ) ) ) ) ) ) ) ) ) ) ) ) ) ) ) ) ) ) ) / / ) 2 1 , .                 ",
"  ] = ) < < < < < < < < < < < < < < < < < < < < < < < < < < < < < < < < < < < < < < < < < < < < < ) ) < ) 3 4 $                 ",
"  ] 5 ) ) / ) / < ) < < ) < / ) ) ) ) ) ) ) ) ) ) ) ) / < < < ) ) ) ) ) ) < / ) / / ) ) ) ) ) < ) ) / < ) 6 @   $   $     $ $   ",
"7 8 9 ) ) ) ) ^ < ) / / ) < < ) ) ) ) ) ) ) < 0 0 a ) < < < ) ) < [ ^ ^ a [ [ ) < < a / ) 0 < ^ / ) < ) / ) b 4     { . $   $   ",
"{ # ~ c d e f g h ) < < ) ) ) ) ) ) ) ) ) ) ) [ i j j i i i i j i k l m / < [ a / < < a j / / [ 0 < / ) [ ) n 7       { .       ",
"  { o , # { 7 p q r ) ) ) < ) ) ) ) ) ) ) ) ) s t u & v w u u u v x y z A B C D ) ) 0 0 < [ m / < ) [ ) [ < E F . {     $ $     ",
"$ 7 . $ 7   { . G * ) ) < / < ) ) ) ) ) ) ) ) H I $ $                 $ { 4 J K L M ) / / ^ l [ ^ / < ) ^ / N e           $     ",
"    , { , O { 7 # P < ) < / < < ) ) ) ) ) ) ) H @ , $ $ {               $ . {   O Q R C ) l < / [ [ ) ) / < S T 7     .         ",
"  $ , { , 7 . 7 F P ^ ) < < ) ) ) ) ) ) ) ) ) = @ { $ $ $ $ $     $ { $ $ { $ . { $ F U g k ^ < < < ) [ < a ^ V 1 7   .   $ $   ",
"      $ $   { $ F P / ) < < ) < ) ) ) ) ) ) ) W @ $ $ $     ,     7 $ { $ { $ $ . { . { @ B X / ) ) ) < ) [ / Y Z . . $ F { .   ",
"      $     $   p ` < ) ) < ) < ) ) ) ) ) ) )  ...$ $ $   {   { o o   {   , p $ {   , { o +.@.) [ < < a ^ < ) ) #.7 $ $ {   $   ",
"      $     $   p ` < ) < < ) < ) ) ) ) ) ) )  ...$ $ $   o $ .   _ $.%.$.$.&.&.%.F $ $ { o b *.) < ) < / < < / C =.{ { { $ {   ",
"      $     $   p ` < ) < < ) < ) ) ) ) ) ) )  ...$ $ $     { { . -.C ;.>.M C ,.'.U { { . F . 3 E ) [ < ) ^ / ) ) ).# ,   $     ",
"      $     $   p ` < ) < < ) < ) ) ) ) ) ) )  ...$ $ $   { .   $ !.) ) ) ) ) ) E =.{ p { . # 4 ~.D / ^ < < < < ) {.% $ $ , {   ",
"      $     $   p ` < ) < < ) < ) ) ) ) ) ) )  ...$ $ $   {   {   ].) / ) ) < < ,.^.  $ # { >   ~ /.[ ) < ) ) ^ (.,.$.{ o $     ",
"      $     $   p ` < ) < < ) < ) ) ) ) ) ) ) W @ {   $   $ $ p   ].) < < < [ < ,.Q $ $ {   $ {   _.:.) ) ) <.P [.}.,   $ >     ",
"      $     $   p ` < ) < < ) < ) ) ) ) ) ) ) ! |.,   $ $ . . { { ~.) ^ < ) < ) ,.1.              # 2.) 3.n 4.%                 ",
"      $     $   p ` < ) < < ) < ) ) ) ) ) ) ) = |.{ $ $ {   7 , 5.6.) ^ < ) < ) ,.1.              . 7.8._ 7 o $                 ",
"      $     $   p ` < ) < < ) < ) ) ) ) ) ) ) W | $ $       $ . e 9.< [ < ) < ) ,.1.                7 { , # . >                 ",
"      $     $   p ` < ) ) < ) < ) ) ) ) ) ) ) H 5.> # O F F @ 8.H / m ^ < ) < ) ,.1.              { $   . { $ p                 ",
"      $     $   p ` < ) < < ) < ) ) ) ) ) ) ) 0.a.b.A @.` E c.d.l [ m < < ) < ) ,.1.              . $ $ { $ 7                   ",
"      $     $   p ` < ) < < ) < ) ) ) ) ) ) < ) ) ) ) ) ) ) [ [ ^ / [ [ < ) < ) ,.1.                . o . { o                   ",
"      $     $   p ` < ) < < ) < ) ) ) ) ) ) < < / / < ) / [ ^ ) < [ < [ < ) < ) ,.1.                $ ,     {                   ",
"      $     $   p ` < ) < < ) < ) ) ) ) ) ) [ a < < < < ) < < < ) < / / < ) < ) ,.1.                                            ",
"      $     $   p ` < ) < < ) < ) ) ) ) ) ) ) < [ / ^ a < / 0 l ^ < ) ) < ) < ) ,.1.                                            ",
"      $     $   p ` < ) < < ) < ) ) ) ) ) ) < [ ^ < < ) [ / < ) ) / / < < ) < ) ,.1.                                            ",
"      $     $   p ` < ) < < ) < ) ) ) ) ) ) / < ) [ ^ ) [ ^ / [ / ) ) / < ) < ) ,.1.                                            ",
"      $     $   p ` < ) < < ) < ) ) ) ) ) ) < < ) ) ) ) ) ) ) [ [ < ) < < ) < ) ,.1.                                            ",
"      $     $   p ` < ) < < ) < ) ) ) ) ) ) ) e.f.g.v w 6.a.h.i.) < < ) < ) < ) ,.1.                                            ",
"      $     $   p ` < ) < < ) < ) ) ) ) ) ) ) * I > > p > p # ~ j.) < / < ) < ) ,.1.              $ $ > { . $ $ . o . $ , .     ",
"      $     $   p ` < ) < < ) < ) ) ) ) ) ) )  ...$ $ $     >   k.r m / < ) < ) ,.1.              4 { . 4 G ' o { . . F { $ {   ",
"      $     $   p ` < ) < < ) < ) ) ) ) ) ) )  ...$ $ $     F o l.A / < < ) < ) ,.1.              { 7 { ^.>.;.m.n.] >   . , ,   ",
"      $     $   p ` < ) < < ) < ) ) ) ) ) ) )  ...$ $ $   . $ 7 o [.) / < ) < ) ,.1.              { > , o.) ) ) p.q.r.4.# , ,   ",
"      $     $   p ` < ) ) < ) < ) ) ) ) ) ) )  ...$ $ $   $ p { $ s.) < < ) < ) ,.1.              p . _ A ) a / ) ) ) t.u.| .   ",
"      $     $   p ` < ) < < ) < ) ) ) ) ) ) )  ...$ $ $     { {   r.) 0 < ) < ) ,.1.              . { v.) / / < / [ 0 m w.,     ",
"      $     $   p ` < ) < < ) < ) ) ) ) ) ) )  ...$ $ $   . > $ $ x.) ) ) ) ) ) >.Q         $ $ $ { y.z.) / ) / < [ ^ A.B.{     ",
"      $     $   p ` < ) < < ) < ) ) ) ) ) ) )  ...$ $ $   $ . . $ C.D.E.E.F.E.G.H.$.{ $ $ $ . , , , K ) a / ) / < ) [ E > $ $   ",
"      $     $   p ` < ) < < ) < ) ) ) ) ) ) )  ...$ $ $   7 $ $ . l.}.~ }.J v.^.1.F { # { { $ > { 7.I.[ < < [ < < / ) L 7 $     ",
"      $     $   p ` < ) < < ) < ) ) ) ) ) ) )  ...$ $ $   { { $ > . > {   $ $ $ { . $ . $ #   $ J.g a 0 ) ) a ) < / ) 3 . o     ",
"      $     $   p ` < ) < < ) < ) ) ) ) ) ) )  ...$ $ $     > {   $ $ { 7   . , $ , { $   { o 4 K.L.0 < / < ) / ^ ) E | > $ $   ",
"      $     $   p ` < ) < < ) < ) ) ) ) ) ) )  ...$ $ $   $ $ {   7 $ , $ $ , , $ o , { { , | s.) l / k ) < / ) / ) M.> p $     ",
"      $     $   p ` < ) ) < ) < ) ) ) ) ) ) ) W ..$ $ $   { $ , $ $ ,   $ { {   .   . $ { &.} ) a < [ k < / [ < ) c.U . $ .     ",
"  $ { p .   $   > ` ^ ) < ) ) < ) ) ) ) ) ) ) 6 +., $ o { $ { . { $ .     . { $ o { . o 8.6.) / l / [ < < < ) < ) 6.G >   { $   ",
"  $ { . $ O   7 # P ^ ) < ) ) ) ) ) ) ) ) ) ) 5 @ , , $ $             $ o $ $   { { U N.I.X ) X O.) [ / ) < < < ) K 7 , . $ $   ",
"{ > o o . { 7 o # H./ ) ) ) ) ) ) ) ) ) ) ) ) h.% . p   > . $       $ $ o F +.% k.@.D.(.) < < [ / < / ) ) < [ ) t.c     7   $   ",
"$ o     7   { o =.P.) ) ) ) ) ) ) ) ) ) ) ) ) ) u ~ J.Q.&.' 1 1 ' 8 U R.S.s./.T./ / < ^ [ < [ < ^ < ) ) ) < < ) N.O , {   $ $   ",
"$ o l.] &.Q.U.S.W ) ) ) ) < < ) ) ) ) ) ) ) ) < ) ) ) ) ) ) ) ) ) ) ) ) ) ) ) ) / / / l 0 ) < ) / < ) ) < ) ) V.W.$ . 7   { $   ",
"o G X.Y.Z.V E.) ) < < < ) < < ) ) ) ) ) ) ) ) < / ) / < / ) ) ) < < / / < ) / / ) / [ 0 a a / < < ) ) < < ) < `.}..   , $ $ $   ",
"$ ] /.) ) ) ) < / ) [ / ) < / < ) ) ) ) ) ) / / 0 / / ^ ) < < ) ) ) < < < ) ) < ) ) / < [ ^ ) ) < ) ) < < ) m P 4 > ,   { $ {   ",
"  b V ) ) ) ) ) ) ) ) ) ) ) ) ) ) ) ) ) ) ) ) ) ) ) ) ) ) ) ) ) ) ) ) ) ) ) ) ) ) ) ) ) ) ) ) ) ) < ) < < a  +W.                ",
"  ] : ) ) ) ) ) ) ) ) ) ) ) ) ) ) ) ) ) ) ) ) ) ) ) ) ) ) ) ) ) ) ) ) ) ) ) ) ) ) ) ) ) ) ) ) ) ) a ) ^ m ) 2...                ",
"  ] * ) ) ) ) ) ) ) ) ) ) ) ) ) ) ) ) ) ) ) ) ) ) ) ) ) ) ) ) ) ) ) ) ) ) ) ) ) ) ) ) ) ) ) ) ) ) / / < < < .+.                 ",
"  b W ) ) ) ) ) ) ) ) ) ) ) ) ) ) ) ) ) ) ) ) ) ) ) ) ) ) ) ) ) ) ) ) ) ) ) ) ) ) ) ) ) ) ) ) ) ) ) / [ < ) ++,                 ",
"$ ' : ) < < < < < < < < < < < < < < < < < < < < < < < < < < < < < < < < < < < < < < < < < < < < < < ) < ) @+#+$                 ",
"{ b P :.r r r r r r r r r r r r r r r r r r r r r r r r r r r r r r r r r r r r r r r r r r r r r r p.V.T.!.# o                 ",
"  @ ( $+$+$+$+$+$+$+$+$+$+$+$+$+$+$+$+$+$+$+$+$+$+$+$+$+$+$+$+$+$+$+$+$+$+$+$+$+$+$+$+$+$+$+$+$+$+$+%+$+q % .                   ",
"                                                                                                                                "};
