/* XPM */
static char * North_xpm[] = {
"64 64 190 2",
"  	c #FFFFFF",
". 	c #FDFDFD",
"+ 	c #FEFEFE",
"@ 	c #FCFCFC",
"# 	c #F9F9F9",
"$ 	c #F8F8F8",
"% 	c #FAFAFA",
"& 	c #EAEAEA",
"* 	c #E6E6E6",
"= 	c #E9E9E9",
"- 	c #ECECEC",
"; 	c #FBFBFB",
"> 	c #F7F7F7",
", 	c #EBEBEB",
"' 	c #E7E7E7",
") 	c #F4F4F4",
"! 	c #D5D5D5",
"~ 	c #797979",
"{ 	c #757575",
"] 	c #787878",
"^ 	c #747474",
"/ 	c #737373",
"( 	c #7A7A7A",
"_ 	c #C4C4C4",
": 	c #767676",
"< 	c #727272",
"[ 	c #C8C8C8",
"} 	c #D2D2D2",
"| 	c #222222",
"1 	c #000000",
"2 	c #848484",
"3 	c #B8B8B8",
"4 	c #2C2C2C",
"5 	c #C3C3C3",
"6 	c #D0D0D0",
"7 	c #2B2B2B",
"8 	c #040404",
"9 	c #010101",
"0 	c #020202",
"a 	c #2A2A2A",
"b 	c #B9B9B9",
"c 	c #2D2D2D",
"d 	c #C6C6C6",
"e 	c #CECECE",
"f 	c #252525",
"g 	c #939393",
"h 	c #BCBCBC",
"i 	c #313131",
"j 	c #D4D4D4",
"k 	c #030303",
"l 	c #CCCCCC",
"m 	c #050505",
"n 	c #242424",
"o 	c #0A0A0A",
"p 	c #686868",
"q 	c #BBBBBB",
"r 	c #2F2F2F",
"s 	c #070707",
"t 	c #D1D1D1",
"u 	c #262626",
"v 	c #272727",
"w 	c #060606",
"x 	c #C9C9C9",
"y 	c #D3D3D3",
"z 	c #5A5A5A",
"A 	c #595959",
"B 	c #505050",
"C 	c #080808",
"D 	c #646464",
"E 	c #575757",
"F 	c #545454",
"G 	c #414141",
"H 	c #5F5F5F",
"I 	c #4F4F4F",
"J 	c #535353",
"K 	c #E1E1E1",
"L 	c #E3E3E3",
"M 	c #E2E2E2",
"N 	c #919191",
"O 	c #161616",
"P 	c #393939",
"Q 	c #C1C1C1",
"R 	c #F5F5F5",
"S 	c #DFDFDF",
"T 	c #DCDCDC",
"U 	c #090909",
"V 	c #DADADA",
"W 	c #DEDEDE",
"X 	c #6A6A6A",
"Y 	c #8F8F8F",
"Z 	c #F2F2F2",
"` 	c #E8E8E8",
" .	c #4C4C4C",
"..	c #EDEDED",
"+.	c #C2C2C2",
"@.	c #171717",
"#.	c #CBCBCB",
"$.	c #ADADAD",
"%.	c #828282",
"&.	c #CFCFCF",
"*.	c #808080",
"=.	c #9C9C9C",
"-.	c #9F9F9F",
";.	c #6B6B6B",
">.	c #212121",
",.	c #BFBFBF",
"'.	c #404040",
").	c #202020",
"!.	c #EFEFEF",
"~.	c #909090",
"{.	c #515151",
"].	c #BDBDBD",
"^.	c #C5C5C5",
"/.	c #A0A0A0",
"(.	c #989898",
"_.	c #C7C7C7",
":.	c #898989",
"<.	c #F1F1F1",
"[.	c #A2A2A2",
"}.	c #949494",
"|.	c #A3A3A3",
"1.	c #F3F3F3",
"2.	c #929292",
"3.	c #878787",
"4.	c #999999",
"5.	c #EEEEEE",
"6.	c #303030",
"7.	c #616161",
"8.	c #979797",
"9.	c #8B8B8B",
"0.	c #232323",
"a.	c #F6F6F6",
"b.	c #3E3E3E",
"c.	c #6D6D6D",
"d.	c #818181",
"e.	c #0C0C0C",
"f.	c #343434",
"g.	c #C0C0C0",
"h.	c #959595",
"i.	c #D8D8D8",
"j.	c #2E2E2E",
"k.	c #7B7B7B",
"l.	c #BEBEBE",
"m.	c #969696",
"n.	c #7C7C7C",
"o.	c #141414",
"p.	c #D7D7D7",
"q.	c #353535",
"r.	c #0B0B0B",
"s.	c #5E5E5E",
"t.	c #4E4E4E",
"u.	c #636363",
"v.	c #B5B5B5",
"w.	c #8C8C8C",
"x.	c #111111",
"y.	c #282828",
"z.	c #4D4D4D",
"A.	c #E5E5E5",
"B.	c #9A9A9A",
"C.	c #3F3F3F",
"D.	c #131313",
"E.	c #474747",
"F.	c #0E0E0E",
"G.	c #838383",
"H.	c #101010",
"I.	c #383838",
"J.	c #E0E0E0",
"K.	c #1B1B1B",
"L.	c #B0B0B0",
"M.	c #8A8A8A",
"N.	c #DDDDDD",
"O.	c #A1A1A1",
"P.	c #333333",
"Q.	c #E4E4E4",
"R.	c #CACACA",
"S.	c #F0F0F0",
"T.	c #8E8E8E",
"U.	c #4A4A4A",
"V.	c #3C3C3C",
"W.	c #3B3B3B",
"X.	c #3D3D3D",
"Y.	c #ABABAB",
"Z.	c #3A3A3A",
"`.	c #A5A5A5",
" +	c #A4A4A4",
".+	c #AEAEAE",
"++	c #525252",
"@+	c #0F0F0F",
"#+	c #292929",
"$+	c #1F1F1F",
"                                                                                                                                ",
"        . + @ @ +                             + + + + + . # . $ + + + @ + @ .   @ +                                       + # + ",
"      + # % & & * = & & & & & & & & & & & & = = = = = = - ; ; % % ; . . . . > & & , & & & & & & & & & & & & & & & & & & & ' )   ",
"        ; ! ~ { { ] ^ ^ ^ ^ ^ ^ ^ ^ ^ ^ ^ ^ ^ / / / / / ( _ @ # + @ . + @ % _ ( { : ^ ^ ^ ^ ^ ^ ^ ^ ^ ^ ^ ^ ^ ^ ^ ^ ^ ^ { < [ @ ",
"      @ + } | 1 1 1 1 1 1 1 1 1 1 1 1 1 1 1 1 1 1 1 1 1 1 2 & . ;   . + +   3 4 1 1 1 1 1 1 1 1 1 1 1 1 1 1 1 1 1 1 1 1 1 1 5 ; ",
"        . 6 7 8 1 9 0 0 0 0 0 0 0 0 0 0 0 0 0 0 0 0 0 0 0 a 6 @ @ . +   @ @ b c 1 9 0 0 0 0 0 0 0 0 0 0 0 0 0 0 0 0 0 0 0 1 d @ ",
"      . + e f 1 8 1 1 1 1 1 1 1 1 1 1 1 1 1 1 1 1 1 1 1 1 1 g ) @ % ; . + + h i 1 0 1 1 1 1 1 1 1 1 1 1 1 1 1 1 1 1 1 1 9 1 _ # ",
"      . % j f 8 k 9 9 0 9 1 8 9 1 1 1 1 1 1 1 1 1 1 1 1 9 k 1 l >   ; @ .   b 4 m 1 9 1 8 0 1 9 1 1 1 1 1 1 1 8 1 9 1 1 9 1 d + ",
"        @ j n 9 1 k m 9 k o 9 9 1 1 1 1 1 1 1 1 1 1 1 1 9 k 1 p # $ ;   %   q r o 0 s 8 0 9 1 9 1 1 1 1 1 1 0 9 k 0 9 s 0 1 d % ",
"      + . t u 1 1 1 1 0 k 9 8 s 1 1 1 1 1 1 1 1 1 1 1 1 1 9 9 v l       ;   b c 1 1 1 1 8 k 0 w 1 1 1 1 1 1 9 k k 1 1 1 1 1 x . ",
"      . % y p z A B | 1 s k 8 9 1 1 1 1 1 1 1 1 1 1 1 1 1 0 k C < ) ; .     x D E A F r 1 s k k 1 1 1 1 1 1 k k 1 1 G H I J x . ",
"      + @ > K L L M j N O 1 9 9 1 1 1 1 1 1 1 1 1 1 1 1 1 9 s 9 P Q . @ . . R M L M S T [ 1 C 0 1 1 1 1 1 1 0 U ] V W S K L ) + ",
"        @   +     $ % - X 1 0 1 1 1 1 1 1 1 1 1 1 1 1 1 1 1 9 w 1 Y Z + + $ .   + . ; + ` 2 1 9 1 1 1 1 1 1 1  ...$ > @ $ + # % ",
"        . + . @     @ . +.1 9 0 1 1 1 1 1 1 1 1 1 9 1 9 1 k k 9 9 @.#.;   + + + +   % . # $.1 8 1 1 1 1 1 1 1 %.@ +   ;   + + @ ",
"                    + + &.1 1 9 1 1 1 1 1 1 0 1 9 8 1 8 9 9 0 1 8 1 *.Z % + . .     + . % +.1 1 1 1 1 1 1 1 1 =.; . +           ",
"                    + + &.1 1 9 1 1 1 1 1 1 k 9 9 8 9 9 9 1 9 1 0 k 1 &.$     #     + + ; +.1 1 1 1 1 1 1 1 1 -.. +             ",
"                    + + &.1 1 9 1 1 1 1 1 1 1 1 9 1 9 1 8 8 1 0 1 0 1 ;.$ % + @ .   +   ; +.1 1 1 1 1 1 1 1 1 -.. +   + +       ",
"                    + + &.1 1 9 1 1 1 1 1 1 8 9 0 1 0 9 9 0 k k m 1 k >.,.  +   +   +   . _ 1 1 1 1 1 1 1 1 1 -.. + + . .       ",
"                    + + &.1 1 9 1 1 1 1 1 1 '.).9 9 k 9 1 0 m 9 k k 9 8 ;.!.        +   . _ 1 1 1 1 1 1 1 1 1 -.. + + + +       ",
"                    + + &.1 1 9 1 1 1 1 1 1 ~.{.0 0 0 9 0 k m 0 1 k 0 1 i ].    + + +   . ^.1 1 1 1 1 1 1 1 1 /..               ",
"                  + + . 6 1 1 1 1 1 1 1 1 1 (._.4 1 9 1 0 1 9 1 1 1 1 1 0 :.<.> + + +   . 5 1 1 1 1 1 1 1 1 1 [.@   .   +       ",
"                  + + . 6 1 1 1 1 1 1 1 1 1 }...%.1 0 9 8 1 1 1 1 1 1 9 1 1 [ . >   +   . 5 1 1 1 1 1 1 1 1 1 |.@   . + +       ",
"                  + + . 6 1 1 1 1 1 1 1 1 1 ~.R V 1 9 8 1 1 1 1 1 1 1 1 8 1 ~ 1.@   +   . 5 1 1 1 1 1 1 1 1 1 |.@   . + +       ",
"                  + + . 6 1 1 1 1 1 1 1 1 1 2.R !.3.1 0 9 1 1 1 1 1 1 1 8 1 1 j )   +   . 5 1 1 1 1 1 1 1 1 1 |.@   . + +       ",
"                  + + . 6 1 1 1 1 1 1 1 1 1 4.5.+ } 6.1 1 1 1 1 1 1 1 9 9 9 1 7.$ + +   . 5 1 1 1 1 1 1 1 1 1 |.@   . + +       ",
"                  + + . 6 1 1 1 1 1 1 1 1 1 8.5.+ Z 9.0 1 1 1 1 1 1 1 1 0 k 8 0._ + +   . 5 1 1 1 1 1 1 1 1 1 |.@   . + +       ",
"                  + + . 6 1 1 1 1 1 1 1 1 1 g a.@   x b.0 0 1 9 1 0 0 9 k 0 0 o c.$   . . 5 1 0 1 1 1 1 1 1 1 |.@   . + +       ",
"                  + + . 6 1 1 1 1 1 1 1 1 1 2.)   + R d.e.m m 9 s k 0 9 0 9 k w f.g.; . . g.1 9 1 1 1 1 1 1 1 |.@   . + +       ",
"                  + + . 6 1 1 1 1 1 1 1 1 1 h.Z   . . i.j.m 9 9 8 1 1 1 w 9 9 k 1 k.&   @ l.1 9 1 1 1 1 1 1 1 |.@   . + +       ",
"                  + + . 6 1 1 1 1 1 1 1 1 1 m.Z + . % ; n.1 8 m 9 0 0 0 k 9 k 9 m o.x @ ; l.1 9 1 1 1 1 1 1 1 |.@   . + +       ",
"                  + + . 6 1 1 1 1 1 1 1 1 1 2.R % . . @ p.o.k 0 8 k 8 k 1 9 w k 1 1 ~ Z . Q 1 1 1 1 1 1 1 1 1 |.@   . + +       ",
"                  + + . 6 1 1 1 1 1 1 1 1 1 2.R @ #   % $ /.1 s 0 1 1 1 0 C 9 9 8 k 0 3 ; g.1 1 1 1 1 1 1 1 1 |.@   . + +       ",
"                  + + . 6 1 1 1 1 1 1 1 1 1 }.<.  + @ + @ j q.9 9 k 1 0 9 8 9 9 r.1 1 s.Z ,.1 1 1 1 1 1 1 1 1 |.@   . + +       ",
"                  + + . 6 1 1 1 1 1 1 1 1 1 }.a.  + +     ) Y 0 k k 9 1 1 1 1 1 1 9 9 0._ _.1 k 1 1 1 1 1 1 1 |.@   . + +       ",
"                  + + . 6 1 1 1 1 1 1 1 1 1 }.a.  + +     + p.t.9 k k 9 1 1 1 1 1 1 1 9 u.v.1 9 1 1 1 1 1 1 1 |.@   . + +       ",
"                  + + . 6 1 1 1 1 1 1 1 1 1 }.a.  + +     . @ w.x.9 1 1 1 1 1 1 1 1 1 1 y.z.0 0 1 1 1 1 1 1 1 |.@   . + +       ",
"                  + + . 6 1 1 1 1 1 1 1 1 1 }.a.  + +       . &.7 m m 1 1 1 1 1 1 1 k 9 0 w 0 1 1 1 1 1 1 1 1 |.@   . + +       ",
"                  + + . 6 1 1 1 1 1 1 1 1 1 }.a.  + +     + @ @ 2 1 9 1 1 1 1 1 1 1 9 w k 0 9 0 1 1 1 1 1 1 1 |.@   . + +       ",
"                  + + . 6 1 1 1 1 1 1 1 1 1 }.a.  + +   + % ; > A.q.1 1 1 1 1 1 1 9 9 k m 9 0 0 1 1 1 1 1 1 1 |.@   . + +       ",
"                  + + . 6 1 1 1 1 1 1 1 1 1 }.a.  + +   + @   @ > B.1 9 s 1 k 9 8 1 1 1 1 9 1 1 1 1 1 1 1 1 1 |.@   . + +       ",
"                  + + . 6 1 1 1 1 1 1 1 1 1 }.a.  + +     +   + @ &.C.1 8 m 1 m 9 0 1 1 1 1 1 1 1 1 1 1 1 1 1 |.@   . + +       ",
"                  + + . 6 1 1 1 1 1 1 1 1 1 }.a.  + +     + +   % > 4.D.9 9 0 8 9 1 1 1 1 1 1 1 1 1 1 1 1 1 1 |.@   . + +       ",
"                  + + . 6 1 1 1 1 1 1 1 1 1 }.a.  + +     + .   % . } E.F.9 8 9 9 0 1 1 1 1 1 1 1 1 1 1 1 1 1 |.@   . + +       ",
"                  + + . 6 1 1 1 1 1 1 1 1 1 }.a.  + +   + ; . ; + ; # G.H.9 0 w 9 k 1 1 1 1 1 1 1 1 1 1 1 1 1 |.@   . + +       ",
"                  + + . 6 1 1 1 1 1 1 1 1 1 }.a.  + +   + @   $   . . L I.s s m 0 1 1 1 1 1 1 1 1 1 1 1 1 1 1 |.@   . + +       ",
"      + + +         . . } 1 1 8 1 1 1 1 1 1 }.R   . + .   + + @ + @ + @ 2.1 1 9 0 0 1 1 1 1 1 1 1 1 1 1 1 1 1 |.@   . + +       ",
"      + + + + + + + . + } 1 0 w 1 1 1 1 1 1 4.<.; . ; % +         @ + + J.K.0 k 8 k 1 1 1 1 1 1 1 1 1 1 1 1 1 |.@   . + +       ",
"      + +         + . a.e 1 0 C 1 1 1 1 1 1 Y 1.. @ ; . .   +     . @ + a.L.1 o 9 0 1 1 1 1 1 1 1 1 1 1 1 1 1 |.@   . + +       ",
"      @ . +       +   @ ^.1 k 9 1 1 1 1 1 1 M.) . @ . .   + .           # N.E 1 w 1 1 1 1 1 1 1 1 1 1 1 1 1 1 |.@   . + +       ",
"              + . ; @ R 5 1 m 8 1 1 1 1 1 1 ] - 1.. @   .     + +     + . a.O.o 9 1 1 1 1 1 1 1 1 1 1 1 1 1 1 |.@   . + +       ",
"          . . . +   # @ < 1 m w 1 1 1 1 1 1 P.Q.. @ + .   @     . +   @ + % ! I 9 9 1 1 1 1 1 1 1 1 1 1 1 1 1 |.@   . + +       ",
"        @ ) - ' A.K e Y o.k 0 1 1 1 1 1 1 1 1 < R.S * ` Q.S..   +     . + + @ T.x.1 1 1 1 1 1 1 1 1 1 1 1 1 1 |.@   . + +       ",
"          ! U.V.V.P i H.1 1 1 1 1 1 1 1 1 1 1 w r P W.X.P Y.    . +           Q.Z.0 8 0 9 k 1 k 1 1 1 1 1 1 1 |.@   . + +       ",
"      @ + 6 u 1 k 1 1 1 1 1 1 1 1 1 1 1 1 1 1 1 1 1 9 9 1 `.    +     + +   + . g 1 k w 8 9 k k 1 1 1 1 1 1 1 |.@   . + +       ",
"      . + 6 u 1 9 1 1 1 1 1 1 1 1 1 1 1 1 1 1 9 1 1 1 1 1  ++       +   . . . ; J.P 1 1 r.1 C 0 1 1 1 1 1 1 1 |.@   . + +       ",
"          } v 1 9 1 1 1 1 1 1 1 1 1 1 1 1 1 9 9 9 9 9 9 1 [.+       + . . %   # # .+1 C 0 9 k 8 1 1 1 1 1 1 1 |.@   . + +       ",
"      +   t u 1 9 1 1 1 1 1 1 1 1 1 1 1 1 1 1 1 1 1 1 9 1 [.+       + @ + % .   # T ++1 8 w w 1 1 1 1 1 1 1 1 |.@   . + +       ",
"      +   6 u 1 9 1 1 1 1 1 1 1 1 1 1 1 1 1 1 1 1 1 1 1 1  +        +   @ . . + # # [.@+e.k k 0 1 1 1 1 1 1 1 |.@   . + +       ",
"          } | 9 k 1 1 1 1 1 1 1 1 1 1 1 1 1 1 1 1 1 1 1 1 `.. .   @ @   ;     +   . S F 1 k k 0 1 1 1 1 1 1 1 [.@ @ .   ;       ",
"        + 6 I.n f u n n n n n n n n n n n n n n n n n n )./.@ + > + ; +           @ @ 8.#+n f n n n n n n n $+(.; . . @ +       ",
"        + % a.# # $ $ $ $ $ $ $ $ $ $ $ $ $ $ $ $ $ $ $ $ ; 1.@ + + . +           . @ % 5.> !.$ $ $ $ $ $ $ # % . ; +   .       ",
"      +   + + ; ; # + + + + + + + + + + + + + + + + + + + % ; @ @ ; +               % % # + @ @ + + + + + + + > # + ; + .       ",
"      .   + . @ @ $ + + + + + + + + + + + + + + + + + + + # # ; . % ;               @ ; + % @ @ + + + + + +   .   + % + ;       ",
"      . @ . @   + @ . . . . . . . . . . . . . . . . . . . . . + @ . ; +           + . + % + + R @ . . . . . @ @   + .   +       "};
