/* XPM */
static char * South_xpm[] = {
"64 64 229 2",
"  	c #FFFFFF",
". 	c #FAFAFA",
"+ 	c #FEFEFE",
"@ 	c #FDFDFD",
"# 	c #F9F9F9",
"$ 	c #F4F4F4",
"% 	c #B8B8B8",
"& 	c #8A8A8A",
"* 	c #7A7A7A",
"= 	c #6E6E6E",
"- 	c #676767",
"; 	c #5F5F5F",
"> 	c #5A5A5A",
", 	c #595959",
"' 	c #5C5C5C",
") 	c #626262",
"! 	c #6C6C6C",
"~ 	c #7C7C7C",
"{ 	c #898989",
"] 	c #B0B0B0",
"^ 	c #F7F7F7",
"/ 	c #F8F8F8",
"( 	c #FBFBFB",
"_ 	c #F3F3F3",
": 	c #E2E2E2",
"< 	c #E8E8E8",
"[ 	c #E5E5E5",
"} 	c #E6E6E6",
"| 	c #E3E3E3",
"1 	c #FCFCFC",
"2 	c #EBEBEB",
"3 	c #CCCCCC",
"4 	c #808080",
"5 	c #353535",
"6 	c #0E0E0E",
"7 	c #030303",
"8 	c #010101",
"9 	c #000000",
"0 	c #020202",
"a 	c #080808",
"b 	c #313131",
"c 	c #5B5B5B",
"d 	c #7E7E7E",
"e 	c #F2F2F2",
"f 	c #EDEDED",
"g 	c #4C4C4C",
"h 	c #515151",
"i 	c #505050",
"j 	c #4E4E4E",
"k 	c #D9D9D9",
"l 	c #ECECEC",
"m 	c #C2C2C2",
"n 	c #262626",
"o 	c #0F0F0F",
"p 	c #060606",
"q 	c #070707",
"r 	c #040404",
"s 	c #454545",
"t 	c #C4C4C4",
"u 	c #EFEFEF",
"v 	c #CDCDCD",
"w 	c #0A0A0A",
"x 	c #050505",
"y 	c #CACACA",
"z 	c #BDBDBD",
"A 	c #656565",
"B 	c #696969",
"C 	c #C7C7C7",
"D 	c #6B6B6B",
"E 	c #B4B4B4",
"F 	c #DDDDDD",
"G 	c #8B8B8B",
"H 	c #8D8D8D",
"I 	c #F0F0F0",
"J 	c #6A6A6A",
"K 	c #D5D5D5",
"L 	c #DADADA",
"M 	c #4D4D4D",
"N 	c #0C0C0C",
"O 	c #B6B6B6",
"P 	c #ACACAC",
"Q 	c #525252",
"R 	c #999999",
"S 	c #9A9A9A",
"T 	c #989898",
"U 	c #949494",
"V 	c #959595",
"W 	c #969696",
"X 	c #707070",
"Y 	c #212121",
"Z 	c #191919",
"` 	c #D6D6D6",
" .	c #D4D4D4",
"..	c #DFDFDF",
"+.	c #C5C5C5",
"@.	c #C8C8C8",
"#.	c #909090",
"$.	c #181818",
"%.	c #333333",
"&.	c #A3A3A3",
"*.	c #E7E7E7",
"=.	c #D7D7D7",
"-.	c #9C9C9C",
";.	c #878787",
">.	c #DBDBDB",
",.	c #151515",
"'.	c #090909",
").	c #606060",
"!.	c #BEBEBE",
"~.	c #3D3D3D",
"{.	c #383838",
"].	c #A5A5A5",
"^.	c #434343",
"/.	c #BBBBBB",
"(.	c #494949",
"_.	c #2F2F2F",
":.	c #F6F6F6",
"<.	c #535353",
"[.	c #777777",
"}.	c #252525",
"|.	c #A6A6A6",
"1.	c #CBCBCB",
"2.	c #3A3A3A",
"3.	c #F5F5F5",
"4.	c #6F6F6F",
"5.	c #D2D2D2",
"6.	c #717171",
"7.	c #727272",
"8.	c #B5B5B5",
"9.	c #323232",
"0.	c #B1B1B1",
"a.	c #0B0B0B",
"b.	c #C0C0C0",
"c.	c #9D9D9D",
"d.	c #979797",
"e.	c #575757",
"f.	c #B2B2B2",
"g.	c #E1E1E1",
"h.	c #888888",
"i.	c #111111",
"j.	c #D0D0D0",
"k.	c #424242",
"l.	c #858585",
"m.	c #CECECE",
"n.	c #4A4A4A",
"o.	c #828282",
"p.	c #9E9E9E",
"q.	c #B9B9B9",
"r.	c #EAEAEA",
"s.	c #EEEEEE",
"t.	c #757575",
"u.	c #686868",
"v.	c #DEDEDE",
"w.	c #222222",
"x.	c #585858",
"y.	c #2C2C2C",
"z.	c #D1D1D1",
"A.	c #E9E9E9",
"B.	c #1A1A1A",
"C.	c #404040",
"D.	c #A4A4A4",
"E.	c #DCDCDC",
"F.	c #8E8E8E",
"G.	c #E4E4E4",
"H.	c #C1C1C1",
"I.	c #E0E0E0",
"J.	c #414141",
"K.	c #8F8F8F",
"L.	c #929292",
"M.	c #171717",
"N.	c #202020",
"O.	c #303030",
"P.	c #BCBCBC",
"Q.	c #7D7D7D",
"R.	c #8C8C8C",
"S.	c #101010",
"T.	c #818181",
"U.	c #797979",
"V.	c #363636",
"W.	c #1C1C1C",
"X.	c #939393",
"Y.	c #7B7B7B",
"Z.	c #484848",
"`.	c #272727",
" +	c #9F9F9F",
".+	c #7F7F7F",
"++	c #555555",
"@+	c #1E1E1E",
"#+	c #C6C6C6",
"$+	c #3B3B3B",
"%+	c #3F3F3F",
"&+	c #787878",
"*+	c #AEAEAE",
"=+	c #161616",
"-+	c #4F4F4F",
";+	c #4B4B4B",
">+	c #464646",
",+	c #848484",
"'+	c #B3B3B3",
")+	c #C3C3C3",
"!+	c #CFCFCF",
"~+	c #636363",
"{+	c #0D0D0D",
"]+	c #C9C9C9",
"^+	c #A9A9A9",
"/+	c #292929",
"(+	c #B7B7B7",
"_+	c #A7A7A7",
":+	c #1B1B1B",
"<+	c #D3D3D3",
"[+	c #666666",
"}+	c #AFAFAF",
"|+	c #141414",
"1+	c #343434",
"2+	c #838383",
"3+	c #D8D8D8",
"4+	c #5E5E5E",
"5+	c #A0A0A0",
"6+	c #1F1F1F",
"7+	c #474747",
"8+	c #BFBFBF",
"9+	c #393939",
"0+	c #646464",
"a+	c #2D2D2D",
"b+	c #F1F1F1",
"c+	c #3E3E3E",
"d+	c #131313",
"e+	c #A1A1A1",
"f+	c #2A2A2A",
"                  .   + + + @ + + # # + # $ % & * = - ; > , > ' ) ! ~ { ] ^ / . / (   + / _ : < [ } | } # 1 _ + +               ",
"                  + + @ + + . / @ ( 2 3 4 , 5 6 7 8 9 9 9 9 9 0 9 9 7 a b c d 3 e . ^ @ f 4 g h i h j - k   1 @ /               ",
"                  + (   + . + # l m g n o 7 a 8 0 p q 8 9 9 8 7 r 0 0 7 0 8 6 n s t u . v w 7 x r 8 9 9 y / + + 1               ",
"                    1   . + l z A 9 7 8 p 7 0 8 9 9 9 8 0 8 9 9 8 8 8 8 8 9 7 r 7 9 B C D 9 r 8 a 0 7 9 E ^ (                   ",
"      + 1 +   +   1 @ + + F G r 9 8 0 9 9 8 7 8 8 9 0 x 8 8 9 7 7 0 0 8 9 8 p 0 8 8 9 9 9 9 0 8 9 9 0 9 H I / /                 ",
"      + @ @ 1 ( + 1 ( ( 3 J a 0 9 9 9 9 9 9 9 9 9 0 0 0 9 r 0 0 0 8 8 0 9 8 9 9 0 0 9 9 9 9 9 9 9 9 8 9 h }   /                 ",
"    1     + @ +   + / K j 7 9 8 9 9 9 9 9 9 0 r 9 8 8 a p 8 9 r q 9 9 8 9 8 8 9 9 8 8 9 9 9 9 9 9 9 9 0 9 F   +                 ",
"      1 @   +   . / L M 9 x 8 q 9 9 9 9 9 9 9 8 9 N q 8 8 9 9 9 8 0 a 7 8 0 7 8 9 9 9 9 9 9 9 9 9 8 r 0 9 O . @                 ",
"      # 1 @ # ( 1 f ~ 9 0 7 0 9 9 9 9 9 9 9 9 r 0 9 9 9 9 9 9 9 9 9 9 9 9 9 8 8 8 9 9 9 9 9 9 9 9 9 8 9 9 ) _ .                 ",
"      .   1 # + # P 9 7 a 7 0 9 9 9 9 9 9 9 9 9 9 Q R S T U V W X Y 9 9 9 9 9 8 0 9 9 9 9 9 9 9 9 9 8 7 r Z [                   ",
"      @   ( 1 . ` b r 0 7 0 r p 9 9 9 9 9 9 9 = E  .@ . @ # . ( ..+.P B r 9 9 8 0 8 9 9 9 9 9 9 9 9 7 0 8 w @.@ @               ",
"    +   + ( + @ #.$.0 9 8 8 9 r 8 r 0 8 9 %.&.*.1     1         +   # [ =.W 9 9 p 7 0 0 9 9 9 9 9 8 8 9 q a -.( 1               ",
"    1   @ 1 . e - 0 9 9 9 9 9 9 0 8 8 8 Z ;._                           # e >.j ,.9 8 8 8 r 9 x 8 '.r 9 p 7 ).. (               ",
"    1 + ( 1 @ !.~.9 9 9 9 9 9 9 9 8 0 7 {.y                             + # @ f ].b q a 8 7 0 7 0 r 7 8 9 8 ^.^ +               ",
"      @ @ @   W 0 9 9 9 9 9 9 9 7 0 8 9 j 1 +                           ( 1 . 1 + /.(.x x 7 0 0 p 9 9 8 9 r _.+.                ",
"      + + ( :.{ 9 9 9 9 9 9 9 9 8 8 7 0 s [ 1                           +   # . 1 . C <.9 x x x 8 8 8 8 0 8 6 d                 ",
"        @ 1 | [.9 9 9 9 9 9 9 8 0 9 0 0 }.|.                            @ @ / @ 1 / @ 1.2.8 7 9 0 8 8 9 x 0 8 A 3.              ",
"      ( + @ | 4.9 9 9 9 9 9 9 9 8 0 0 0 a A ..                            :.+ ( ( 1 ( . 3 6 8 8 x 9 8 7 8 8 8 M 5.              ",
"      ( + 1 [ 6.9 9 9 9 9 9 9 9 9 8 9 9 9 $.7.K 1 . + 1 + +   @ 1 +       ( . @ +   + + # 8.9 9 0 7 9 0 0 7 8 9.0.  1 . 1       ",
"      @ ( @ 2 d 9 9 9 9 9 9 9 9 9 9 9 9 9 9 a.j b.u # ( 3.@ ( + + + 1 @ # ( +   1 . + . / $ c.9 8 0 p 0 8 7 a a d.          @ @ ",
"    1 @ 1 + / & 9 9 9 9 9 9 9 9 9 9 9 9 9 9 8 r o e.f.g._   + 1 ( (   @ @ + . @ + @ @ @ :.1 K c 9 r 0 r x 9 9 9 h.$ 1       + + ",
"    @ + + (   S i.9 9 9 9 9 9 9 9 9 9 9 9 9 7 r 0 9 9 {.S C j.| #     @ 1 + +   + ( . 1 ^ 3.@ 8.9.8 r 9 9 9 k.l.m _ ( + +       ",
"    +   1 # @ m.n.9 9 9 9 9 9 9 9 9 9 9 9 9 7 r 0 8 9 9 9 9 (.o.p.q.r.+ @   + @ 1 @     / 1 # s.t.9 9 u.% 3 K 2 @ @     + +     ",
"    @ + 1 1 1 # = r 9 9 9 9 9 9 9 9 9 9 9 9 9 p r r 0 8 r 9 9 9 9 9.6.H 8.=.:.+ 1 +   :.+ ( # + v.8.v.< _ / +   +     @ 1       ",
"      @   @ 1 . |.w.9 9 9 9 9 9 9 9 9 9 9 9 8 0 0 8 0 p 8 0 0 9 8 9 8 a.5 n.).#.>.# 3.( @ .     :.# @   + + @ @ +     @ @   + + ",
"              . u x.8 9 8 p 7 9 9 9 9 9 9 9 9 9 9 9 9 9 9 9 9 9 9 9 9 9 7 9 7 ,.y.h -.z.A.^   @ ( + @ @ + 1 + #                 ",
"      +       + # z B.9 0 0 8 0 9 9 9 9 9 9 9 9 9 9 9 9 9 9 9 9 9 9 9 9 8 8 9 7 8 9 9 9 C.D.E.I   ( #   1 + . $ 1               ",
"      + +         3.F.9 x '.8 8 9 9 9 9 9 9 9 9 9 9 9 9 9 9 9 9 9 9 9 9 8 7 r 8 8 7 0 8 9 9 9.S t < @ . ( + :.( #               ",
"        + + + +   + G.{ 9 x 7 r 9 9 9 9 9 9 9 9 9 9 9 9 9 9 9 9 9 9 9 9 9 8 7 8 0 0 0 0 7 9 9 9 Z { H.:.@ # @ @                 ",
"          + @ @ + $ . I.h.9 x 0 9 9 9 9 9 9 9 9 9 9 9 9 9 9 9 9 9 9 9 9 x 8 9 9 8 7 q r r 9 0 7 9 9 J.K.E.1 ( +                 ",
"    +       @ +   +   @ 3.L.%.w 9 9 9 9 9 9 9 9 9 9 9 9 9 9 9 9 9 9 9 9 8 0 p 7 9 8 8 0 q 0 7 0 8 a 9 M.h v.( + .               ",
"    + +               ( ( . /.X N.9 9 9 8 9 8 8 9 9 9 9 9 9 9 9 9 9 9 9 9 8 9 9 0 x 0 x 9 0 7 9 x 8 7 q 7 %.b.( + + +     +     ",
"    1 #   + @ @ + @ + ( ( @ + _ &.D B.9 8 8 7 0 7 7 8 8 8 8 8 8 9 8 8 0 8 9 9 9 9 9 9 9 9 9 9 9 9 9 7 8 0 9 O.m.. . ( ( + . + + ",
"    ( 1 ( 1 + 1 + 1 + # @ ( + . ( F P.Q.a.9 9 r r x 0 7 7 r 7 0 0 x 0 7 8 9 9 9 9 9 9 9 9 9 9 9 9 9 9 7 7 8 x (.v @   ^ +   @   ",
"    3.@ 1 1   1 ( + + @ ( (   ( 1 + + } t R.}.9 9 9 8 0 8 0 8 0 p r 8 9 9 9 9 9 9 9 9 9 9 9 9 9 9 9 r 7 x 0 8 S.T.r.+ @ +   + + ",
"    1 + @ +     + # @ # ( # ( ^ + + 1 @ ( 2 2 m.U.V.W.a.x 0 x x 8 0 w q 8 9 9 9 9 9 9 9 9 9 9 9 9 9 8 0 7 p 8 8 n E ( 1 + + .   ",
"    . . 1 1 :.. ^ _ [ C X.u.I.@ . . @ ( + . . # / I z Y.e.Z.`.x x 7 8 0 8 9 9 9 9 9 9 9 9 9 9 9 9 9 9 8 9 8 9 7 9 4.:   + + 1   ",
"    + +   ^ *.K ;.J.W.M.a.q  +# 1 .   :.1 @ / + 1 @ + 1 ^ ..]..+++@+9 9 9 9 9 9 9 9 9 9 9 9 9 9 9 9 0 x 8 0 8 a.0 9 #+(   @ +   ",
"      . @ ` $+9 9 9 0 p r r %+..1 @ @ + . 1             + 1 + @  .P X.&+5 9 9 8 8 8 9 9 8 9 8 9 8 9 9 8 8 r 8 9 8 9 *+e + + (   ",
"      + @ I.; 9 0 r 0 r r p =+& . ( 1 ( + ( +             + + @ @   3.v.y ] -+9 9 9 x r 0 0 r x 0 0 9 9 9 9 9 9 9 9 ;+*.@ + 1 + ",
"      @   _ R 9 r 0 0 r 8 p 8 >+y + ( @ + @ +             + + 1 ( +   1 @ # : v ,+Y 9 7 a x 0 7 8 8 9 9 9 9 9 9 9 9 9 F @   + + ",
"      ( + ( '+9 x 0 8 r 8 8 a S.,+2 @ . 1                 1 @       + 1 1 1 + / s.L 4.w.7 7 9 9 q 8 9 9 9 9 9 9 9 7 9 k +   +   ",
"      +   + 8.9 0 8 0 9 r 0 7 9 a.0.$ . @ +                   @ 1 +     1 + # @ @ @ 2 ].$+9 7 x 0 8 9 9 9 9 9 9 9 0 9 y ( 1 1   ",
"    +   + @ P.%.9 8 p 8 7 7 9 8 9 _.)+.   (                 + @ +   + + ( @     1 # @ :.E M.8 0 8 0 9 9 9 9 9 9 8 8 9 H.#   +   ",
"    @ + .   !+i 9 r 7 7 8 9 9 7 0 9 M 3 . ^                 @ +   + 1 1 + 1 + 1   1 @ . l d 9 7 0 x 9 9 9 9 9 9 8 r 9 z.@ @ + + ",
"    + + 1 @ ..= 9 r 9 8 8 9 9 8 8 8 9 ~+m.  + @     @ +     + . . + ( @ 1 @ + @ + ( + + $ +.9 0 8 9 9 9 9 9 9 9 9 0 9 : . @ + + ",
"    + @ + + :.h.9 9 9 9 9 9 9 9 9 0 8 {+).@.  ( @ ^ + +   . @ @ @   ( 1 + + # / @ + + . 1 ]+9 8 0 8 9 9 9 9 9 9 0 q 9 } @ + 1   ",
"      + 1 +   V 9 9 9 9 9 9 9 9 r 0 0 r '.e.)+. + @ / @ / 1     +     + . + + 1 @ + / . . m.9 9 8 9 9 9 9 9 9 9 9 9 ~+r.    @   ",
"    1 + + ( + ^+/+9 9 9 9 9 9 9 0 x 7 0 9 a _.(+I 1 . ( + + +     @ + + 1 +     + + + + $ _+9 7 8 7 9 9 9 9 9 9 8 9 !.# @ + +   ",
"    1 @   + + L <.9 9 9 9 9 9 9 9 x x 0 r a.7 9 U  .+ 1 # @ ( +   @ . + @ + +   + 1 . 1  .%.9 p 8 p 9 9 9 9 9 9 0 :+<+( + . .   ",
"      @ +     # u.9 9 9 9 9 9 9 7 p 8 r p x p p 9 y.b.>.:.# + 1 #   + 1 . + + 1 +   . z.[+9 9 9 7 9 9 9 9 9 9 9 9 ~ [ 1     @ + ",
"    + @ + @ @   6.r 9 9 9 9 9 9 0 p r 7 9 r 7 8 8 9 9 ) c.}+G.+ @ + @ @ +   @ ( + >.].; 9 0 0 0 0 7 9 9 9 9 9 9 n % # +   @   + ",
"      . + @ +   & |+8 0 8 r 8 8 8 7 8 r 8 7 p 9 9 9 9 9 9 1+B 2+R P.3+< A.: 1.&.;.4+B.9 9 9 8 8 9 0 7 9 9 9 9 r { :.+     +     ",
"      ( + 1     5+6+0 8 8 r 8 x a.9 9 8 7 8 8 9 9 9 9 9 9 r 8 r @+{.7+-+-+;+%+`.'.9 x 8 9 9 9 9 9 9 0 a p 8 x > 3+              ",
"      + + 1 +   b.y.r 8 0 8 9 0 0 8 r r p x 9 9 9 9 9 9 9 8 8 9 0 7 9 0 p 8 9 8 0 8 8 9 9 9 9 9 9 8 q x 9 7 >+8+1               ",
"    +   + ( +   : 9+7 0 7 9 0 8 r 8 0 '.x 8 x 9 9 9 9 9 9 0 0 8 0 9 9 9 9 8 0 8 8 8 0 9 9 9 9 9 9 9 7 8 9 9+% :.                ",
"    @   + 1   + ^ ^.8 7 8 9 7 9 7 p 9 9 q p 7 9 9 9 9 9 9 8 8 9 9 9 9 8 8 0 0 8 0 0 9 9 9 9 9 9 9 8 p 9 M 0.3.:.@               ",
"    @   + @   + ( [+8 8 9 9 8 9 8 9 ] J 9 '.9 9 9 9 9 9 9 8 8 9 9 9 8 8 9 9 9 9 0 0 9 9 9 9 9 9 9 9 9 U. .:.( / +               ",
"    @ +   + + @ 1 p.7 0 0 8 9 9 9 0+F l T a+{+9 9 9 9 9 9 9 9 8 8 9 9 8 9 8 7 9 9 8 7 9 9 9 9 9 x y.U b+@ :.@ 1 /               ",
"                + ..'.x 8 8 0 9 9 |.:.+ / g.{ c+d+8 8 r 7 9 9 0 0 8 9 9 9 8 0 9 9 8 0 8 7 8 w b J 5.#     +     +               ",
"                  I 6 9 9 9 9 9 -+@..   # + @ =.R.J b 9 9 9 9 9 8 8 9 9 r 0 9 9 8 9 9 9 Y ' .+% 3.@                             ",
"                  e 5+e+e+c.c.e+m   ( @ ( 1 #     < O -.[.~.9 9 9 9 9 9 9 9 9 9 9 f+).c.|.>.. ( + 1                             ",
"                    @ + + + + + ( 1 ( + / + ( . 1 @   + G.]+H.8.^+D.e+p.D.5+|.% H.#+k # (   ( (   1                             ",
"                  /   @ ( (   @ # ^ @ 1 ( + ( @   + # @ + @ + # ^ :.3.$ :.3.:.1 1 @   1 + 1 +   # @                             "};
