/* XPM */
static char * West_xpm[] = {
"64 64 207 2",
"  	c #FFFFFF",
". 	c #FBFBFB",
"+ 	c #FDFDFD",
"@ 	c #FCFCFC",
"# 	c #FEFEFE",
"$ 	c #FAFAFA",
"% 	c #F7F7F7",
"& 	c #F8F8F8",
"* 	c #F9F9F9",
"= 	c #F6F6F6",
"- 	c #F4F4F4",
"; 	c #8C8C8C",
"> 	c #858585",
", 	c #818181",
"' 	c #838383",
") 	c #848484",
"! 	c #C6C6C6",
"~ 	c #D8D8D8",
"{ 	c #868686",
"] 	c #909090",
"^ 	c #ECECEC",
"/ 	c #8E8E8E",
"( 	c #888888",
"_ 	c #1B1B1B",
": 	c #010101",
"< 	c #000000",
"[ 	c #B0B0B0",
"} 	c #D6D6D6",
"| 	c #040404",
"1 	c #333333",
"2 	c #EDEDED",
"3 	c #464646",
"4 	c #020202",
"5 	c #030303",
"6 	c #1F1F1F",
"7 	c #B2B2B2",
"8 	c #3E3E3E",
"9 	c #EAEAEA",
"0 	c #434343",
"a 	c #212121",
"b 	c #D4D4D4",
"c 	c #3A3A3A",
"d 	c #060606",
"e 	c #202020",
"f 	c #050505",
"g 	c #B5B5B5",
"h 	c #080808",
"i 	c #1E1E1E",
"j 	c #B1B1B1",
"k 	c #D5D5D5",
"l 	c #090909",
"m 	c #373737",
"n 	c #EBEBEB",
"o 	c #444444",
"p 	c #0A0A0A",
"q 	c #070707",
"r 	c #7A7A7A",
"s 	c #5F5F5F",
"t 	c #141414",
"u 	c #383838",
"v 	c #636363",
"w 	c #696969",
"x 	c #CBCBCB",
"y 	c #595959",
"z 	c #303030",
"A 	c #4A4A4A",
"B 	c #676767",
"C 	c #6F6F6F",
"D 	c #8F8F8F",
"E 	c #F3F3F3",
"F 	c #767676",
"G 	c #626262",
"H 	c #0C0C0C",
"I 	c #2D2D2D",
"J 	c #4B4B4B",
"K 	c #B8B8B8",
"L 	c #111111",
"M 	c #3B3B3B",
"N 	c #DDDDDD",
"O 	c #E5E5E5",
"P 	c #616161",
"Q 	c #919191",
"R 	c #BCBCBC",
"S 	c #575757",
"T 	c #E6E6E6",
"U 	c #C7C7C7",
"V 	c #2E2E2E",
"W 	c #414141",
"X 	c #B9B9B9",
"Y 	c #4E4E4E",
"Z 	c #191919",
"` 	c #CCCCCC",
" .	c #B6B6B6",
"..	c #6D6D6D",
"+.	c #242424",
"@.	c #B7B7B7",
"#.	c #B4B4B4",
"$.	c #C1C1C1",
"%.	c #0D0D0D",
"&.	c #E9E9E9",
"*.	c #7C7C7C",
"=.	c #454545",
"-.	c #CACACA",
";.	c #9C9C9C",
">.	c #585858",
",.	c #F5F5F5",
"'.	c #4D4D4D",
").	c #979797",
"!.	c #606060",
"~.	c #989898",
"{.	c #939393",
"].	c #6E6E6E",
"^.	c #171717",
"/.	c #DFDFDF",
"(.	c #F1F1F1",
"_.	c #686868",
":.	c #E0E0E0",
"<.	c #1D1D1D",
"[.	c #E2E2E2",
"}.	c #646464",
"|.	c #A0A0A0",
"1.	c #D0D0D0",
"2.	c #808080",
"3.	c #545454",
"4.	c #404040",
"5.	c #A6A6A6",
"6.	c #9F9F9F",
"7.	c #3D3D3D",
"8.	c #0E0E0E",
"9.	c #BFBFBF",
"0.	c #161616",
"a.	c #DADADA",
"b.	c #9B9B9B",
"c.	c #5B5B5B",
"d.	c #CFCFCF",
"e.	c #323232",
"f.	c #E4E4E4",
"g.	c #F2F2F2",
"h.	c #474747",
"i.	c #C4C4C4",
"j.	c #9E9E9E",
"k.	c #A1A1A1",
"l.	c #9A9A9A",
"m.	c #E8E8E8",
"n.	c #4C4C4C",
"o.	c #393939",
"p.	c #E3E3E3",
"q.	c #232323",
"r.	c #CDCDCD",
"s.	c #959595",
"t.	c #494949",
"u.	c #727272",
"v.	c #101010",
"w.	c #AFAFAF",
"x.	c #272727",
"y.	c #ADADAD",
"z.	c #EEEEEE",
"A.	c #0F0F0F",
"B.	c #DEDEDE",
"C.	c #D1D1D1",
"D.	c #F0F0F0",
"E.	c #717171",
"F.	c #8D8D8D",
"G.	c #999999",
"H.	c #C9C9C9",
"I.	c #929292",
"J.	c #3C3C3C",
"K.	c #A9A9A9",
"L.	c #BABABA",
"M.	c #262626",
"N.	c #C5C5C5",
"O.	c #ABABAB",
"P.	c #292929",
"Q.	c #898989",
"R.	c #747474",
"S.	c #949494",
"T.	c #757575",
"U.	c #B3B3B3",
"V.	c #BBBBBB",
"W.	c #6A6A6A",
"X.	c #565656",
"Y.	c #E1E1E1",
"Z.	c #2A2A2A",
"`.	c #525252",
" +	c #737373",
".+	c #707070",
"++	c #5E5E5E",
"@+	c #7D7D7D",
"#+	c #828282",
"$+	c #DBDBDB",
"%+	c #2F2F2F",
"&+	c #222222",
"*+	c #797979",
"=+	c #C0C0C0",
"-+	c #D2D2D2",
";+	c #343434",
">+	c #A5A5A5",
",+	c #656565",
"'+	c #AEAEAE",
")+	c #131313",
"!+	c #CECECE",
"~+	c #3F3F3F",
"{+	c #D9D9D9",
"]+	c #4F4F4F",
"^+	c #A4A4A4",
"/+	c #1C1C1C",
"(+	c #D7D7D7",
"                                                                                                                                ",
"                                                                                                                                ",
"                                                                                                                                ",
"                                                                                                                                ",
"                                                                                                                                ",
"                                                                                                                                ",
"                                                                                                                                ",
"                                                                                                                                ",
".   +   @ # # # # # # # # # # # # # # #     $ + @ + # # # # # # # # # # # # # # # @   @ + @ .   @ @ + + # # # # # # # # # # # # ",
"  % $ & * $ $ $ $ $ $ $ $ $ $ $ $ $ $ $ * * + # * & $ $ $ $ $ $ $ $ $ $ $ $ $ $ $ * = $ + # $ % & * & $ $ $ $ $ $ $ $ $ $ $ % * ",
"# - ; > , ' ' ' ' ' ' ' ' ' ' ' ' ' ' ' ) ) ! . ~ { ' ' ' ' ' ' ' ' ' ' ' ' ' ' ' { > ] * + ^ / { , ) > ' ' ' ' ' ' ' ' ' ' ( > ",
"    _ : : : < < < < < < < < < < < < < < < < [ # } < < < < < < < < < < < < < < < < < | 1   + 2 3 4 < 5 < < < < < < < < < < < | : ",
"@ + 6 : 4 : < < < < < < < < < < < < < < < < 7 + } < < < < < < < < < < < < < < < < : : 8 # + 9 0 : | 4 4 < < < < < < < < < < : 4 ",
"+   a : : 5 | < 5 4 5 < < < < < 4 4 < 5 : < [   b < 4 5 5 | 5 < < < < < 4 : 4 | < : < c     9 0 4 < < < < < < < < | < 4 : d 5 5 ",
"# # e | : f | 5 : d < < < < < < 4 d < 4 4 < g   } < : 4 4 | | < < < < < : : d h 4 f < c   + 9 0 f < 5 | < < < < < 4 : | 5 h 5 | ",
"  # i < 4 4 : 5 5 : 4 < < < < : | 4 5 f < < j * k < 5 : l : 4 < < < < < 4 f f | < < < m + @ n o < 4 4 4 < < < < < 4 p : : q < < ",
"#   r s o t 4 : | : 4 < < < < < 4 h 4 u v w x   } y z h h : f < < < < < < : p 5 A B C D # # E F C G 0 d < < < < < 4 : 5 H I J v ",
"$ . +   * K < 5 5 < < < < < < < L : M N +   $ # @ @ O P < | f < < < < < : q 5 Q * +   # + @ +   * + - y < < < < < 4 d | o N +   ",
"  #       # R f 4 : < < < < < < d < S #             @ T < : 5 < < < < < < : d U +             @ @ # # ) < < < < < < < < O $     ",
"          + ~ V 4 : < < < < < : : | W 9             + & r f < < < < < < < : < X # #           # # # # Y < < < < < : < C . #     ",
"            E Y 4 | < < < < < : : 5 Z ` .           # $  .h | < < < < < : | < ... #         +   # # & +.< < < < < < q @.# +     ",
"          .   ( < 5 : < < < < < 4 < 5 #.+           @   N I : < < < < < < 5 < < 2             .   - $.%.< < < < < < z k # +     ",
"          $ + &.< 5 : < < < < < < 5 5 *..             + & =.< < < < < < < 5 5 < -.            $   - ;.: < < < < < < >.. + +     ",
"            . ,.'.d < < < < < < : 5 5 a * # # # + @ # #   D < < < < < < < 4 f < ).  @ +   .     $ ,.!.< < < < < < < ~.# # #     ",
"          # @ = {.: 4 < < < < : : < < < k +     @ + #   # T < < < < < < f < l < ].+     # + # *   n ^.< < < < < < < /.+   .     ",
"            . # K %.< < < < < < < 4 < < { *   # +   + @ $ (._.< < < < < : 5 4 | 0 T + # +   @ # . :.< f < < < < < <.=   # #     ",
"          . + . [.I : < < < < < : 4 < < }.%   # # # # %   & |.: < < < < : f : : < 1.+ + + # + # # 2.< < < < < < < ;.. # + #     ",
"          +   &   3.< < < < < : 5 < < 5 4.O     # + . # . + 5.| < < < < 4 < 5 4 < 6.#   + # #   * 7.5 < < < < < 8.9.# @ + #     ",
"            . . @ g < < < < 5 < : : 4 : 0.a.# + #   @ # + $ b.< < < < < < : < < < c.. + . .   $ d.a 4 4 : : | : e.f.# + @ +     ",
"          @ +     /.< 5 < : f < < < < < < [     #   + . @ g.4.< < < < < < < < < < < *   *   @ + [ %.: : 5 < : < 3 %   +   +     ",
"            @ # . g.h.f : < | < < < < < < 0 @   +   # # + d.< < < < < < < < < < < < i.  + + + $ j.| < < < 4 : < k.    +   @     ",
"              +   @ l.: 5 < f < < < < < < < m.@ # # @ # + ].< < < < < < < < < < < 4 > @   *   (.n.4 4 4 5 < | < 9 #   #   #     ",
"          #   + # ,.9.%.: : : < < < < < < < K .   # # # E o.| < < < < < < < < < < < B - # + # p.< q < < q : 5 G = +     #       ",
"            + @ +   g.q.< | : 4 < < < < < < {.@ # # @ + r.6 < < < 4 < < < < < < < < I p.+ + # s.< 4 5 < 4 < | j.*   #           ",
"                      t.< 4 : < < < < < < 4 u.% + # + @ k.: : < 5 4 < | < < < < < : < :.@ $ * >.< 4 4 < 4 4 v.g .               ",
"                      w.< < 4 < < < < < < | x.O # + # = o d < f f < < 5 < < < < < : < y.@ # z.h.f : 5 : : 5 _ m.                ",
"                    + T A.: 5 < < < < < < 5 < r.@     B.< | < 5 d | 5 4 < < < < < < < z   * C.6 4 < < | 5 < v @ #               ",
"                      D.E.f < 4 < < < < < < < F.  +   G.< < : 4 4 q < | < < < < < < 5 H N . X 4 < f < 4 : < H.#                 ",
"                    $ + I.: d < < < < < < < < J.@ + + S < d < : < c.i : < < < < < : : 5 K.. >.5 < < < < < ^.O + @               ",
"                    # + L.< 5 < < < < < < < 5 %.z.$ C.M.5 < : : < N._.5 < < < < < : < 4 ).^ < < < < < < : s g.@ +               ",
"                    # + - 5 : 5 < < < < < < 5 5 O.+ j 4 5 : : < P.# Q.< < < < < < : : 5 R.9.< < < < < < : S.* + #               ",
"                    + #   T.| < < < < < < 5 < 5 ) = u.q < 5 < < U.# V.< < < < < < < d < a W.< < < < < : < C.@   #               ",
"                    #     k < : < < < < < q < < X.m.< : < | < Z N   - < < < < < < : : : : | 5 < < < < < <.+ # $ #               ",
"                      # + Y.Z.: < < < < : 5 4 5 x., < 5 < : : `.&.* @  +< < < < < < 4 d : d 4 < < < < < .+@ # $ #               ",
"                    # + # D.++: < < < < < < < < < : : : | 4 4 @+#   # r.5 4 < : : < < < < < 4 : : < 5 < ` . # + $               ",
"                    @   @   #+: < < < < < < < < < < : < : 5 < ! @   . $+1 4 : | < < < < < < < : 4 < 5 %+:.  .   .               ",
"                      + # + N < < < < < < < < < < < : < : < 6 @ #   # D.X.4 < 5 < < < < < < < 5 5 : < T.. $   + #               ",
"                    @   # + @ &+< < < < < < < < < < < < 4 < #+@ # + #   *+< < < < < < < < < : < : 5 < {.+ # $                   ",
"                    # @ # + % > < < < < < < < < < < < : < < =+# $   $   a.< 4 : < < < < < < : < 4 : < -++ + @   .               ",
"                      #       x 4 : < < 5 < < < < < < : : m /.  #   #   = ;+4 4 : 4 < < < < 4 : < 5 < .   #                     ",
"                              :.m | : 4 < < < < < < : f : B #           + / 5 : d < < < < < < < 4 < >+@                         ",
"                              # ,+< : 4 : < < < < < | : < '+.           * L.f 5 : : < < < < < q < )+!+@                         ",
"                                ~.< d < : < < < < < 4 5 < T             @ } P.5 : : < < < < : 4 4 ~+/.                          ",
"                                {+< : 4 < < < < < < f 4 `.% #             @ ]+| f < < < < < : : : s . .                         ",
"                                - _ f 5 4 < < < < < 5 |  .+ @           # + ^+< q : < < < < < d < s.# +                         ",
"                              * . k.< < < < < < < < < /+b * #           + # p.< < < < < < < < < < * *                           ",
"                                @ z.O f.O O O O O O [.(+& + #           + * . O p.f.O O O O O Y.[.+ + $                         ",
"                                @ . . + +           . # . # #           +   & * @               . . #                           ",
"                                = @ + + #           # * + +               $ # . + @         + * + * + @                         ",
"                              #   #     #           +     # .           + # +   .               @                               ",
"                                                                                                                                ",
"                                                                                                                                ",
"                                                                                                                                ",
"                                                                                                                                "};
